<svg xmlns="http://www.w3.org/2000/svg" viewBox="0 0 163.51 29.59"><defs><style>.cls-1{fill:#272d46;}.cls-2{fill:#bf6023;}</style></defs><title>asi-de-simple</title><g id="Capa_2" data-name="Capa 2"><g id="Capa_1-2" data-name="Capa 1"><path class="cls-1" d="M11.93,15.76c0,.29-.67.62-2,1q.18,2.39.18,4c0,1.92-.24,2.88-.73,2.88-.26,0-.46-.16-.61-.48a5.55,5.55,0,0,1-.37-1.67c-.11-1.46-.22-2.89-.34-4.3l-1.88.5c-.56.14-1.41.37-2.56.69q-2,5.27-2.38,5.26a1.15,1.15,0,0,1-.78-.45A1.32,1.32,0,0,1,0,22.3a28.76,28.76,0,0,1,1.31-3.25H1.17a1.24,1.24,0,0,1-.82-.3A.94.94,0,0,1,0,18c0-.3.75-.69,2.26-1.18.25-.55.45-1,.6-1.48.35-.87.84-2.06,1.46-3.57s1-2.47,1.19-2.89a2.45,2.45,0,0,1,.88-1.08,2.17,2.17,0,0,1,1.22-.44c.48,0,.9.75,1.27,2.26a39.36,39.36,0,0,1,.9,5.6c.43,0,.8-.07,1.12-.07.69,0,1,.2,1,.6m-7.47.48c1.08-.29,2.22-.53,3.43-.73-.28-2.61-.54-4.57-.8-5.88q-1,2.35-2.63,6.61"/><path class="cls-1" d="M20.19,12.37a1.93,1.93,0,0,1,1.46.86,2.55,2.55,0,0,1,.69,1.5c0,.26-.13.39-.37.39a1.65,1.65,0,0,1-.78-.4,1.74,1.74,0,0,0-1.07-.4,4.24,4.24,0,0,0-1.73.64c-.78.42-1.18.87-1.18,1.35s.71,1,2.11,1.8a6.5,6.5,0,0,1,1.45,1.29,2.64,2.64,0,0,1,.65,1.7c0,.6-.41,1.18-1.25,1.76a5,5,0,0,1-2.9.85,5.29,5.29,0,0,1-2.92-.8c-.85-.53-1.27-1-1.27-1.51a.67.67,0,0,1,.15-.46.45.45,0,0,1,.37-.18,1.25,1.25,0,0,1,.64.3,4.31,4.31,0,0,0,2.57.89,4.41,4.41,0,0,0,1.94-.31.92.92,0,0,0,.59-.82,1.59,1.59,0,0,0-.66-1.1,10.27,10.27,0,0,0-1.45-1,6.76,6.76,0,0,1-1.46-1.12,1.92,1.92,0,0,1-.66-1.34c0-.81.64-1.65,1.91-2.53a6,6,0,0,1,3.17-1.32"/><path class="cls-1" d="M26.45,12.38c.24,0,.49.17.76.52a1.77,1.77,0,0,1,.38,1c0,.84-.77,3.72-2.33,8.64-.26.76-.59,1.14-1,1.14a.67.67,0,0,1-.53-.26.92.92,0,0,1-.22-.61,6.72,6.72,0,0,1,.23-1.27c.15-.61.35-1.37.59-2.26s.54-2.09.88-3.6.58-2.44.7-2.79.31-.52.55-.52m.81-1.17a.52.52,0,0,1-.41-.19.79.79,0,0,1-.17-.52A1.17,1.17,0,0,1,27,9.81a11.74,11.74,0,0,1,.84-.9l.88-.86.51-.5.39-.36a1.14,1.14,0,0,1,.71-.32.82.82,0,0,1,.62.42,1.34,1.34,0,0,1,.3.75,1.46,1.46,0,0,1-.06.49.84.84,0,0,1-.28.35c-.14.12-.27.22-.37.29L29.26,10c-.29.19-.53.36-.73.51l-.43.32a2,2,0,0,1-.84.39"/><path class="cls-1" d="M47.78,6c.24,0,.54.23.9.68a2.08,2.08,0,0,1,.54,1.27,26.48,26.48,0,0,1-.57,3.37q-.59,2.78-1.33,5.75-1.65,6.67-2.17,6.67a1,1,0,0,1-.7-.4,1.1,1.1,0,0,1-.37-.69,8.92,8.92,0,0,1,.15-1.19q-2.23,2.28-3.9,2.28a2.38,2.38,0,0,1-1.82-.91,2.84,2.84,0,0,1-.81-1.9,9.49,9.49,0,0,1,.76-3.37A11.71,11.71,0,0,1,40.67,14a4.16,4.16,0,0,1,3.06-1.6c1.08,0,1.84.65,2.27,2a42.17,42.17,0,0,0,1.27-7.66q0-.69.51-.69M45.26,17.2a4.64,4.64,0,0,0-.42-2.08c-.28-.57-.62-.85-1-.85a2.83,2.83,0,0,0-2,1.21,9.74,9.74,0,0,0-1.63,2.78A7.59,7.59,0,0,0,39.57,21a.81.81,0,0,0,.3.66,1,1,0,0,0,.71.25A4.33,4.33,0,0,0,43,20.6a7.48,7.48,0,0,0,2.2-3l.07-.28Z"/><path class="cls-1" d="M58.52,16.16a2.28,2.28,0,0,1-1.31,2,5.81,5.81,0,0,1-3,.76,11.66,11.66,0,0,1-3-.36,6.11,6.11,0,0,0-.32,1.79,1.51,1.51,0,0,0,.49,1.22A2.43,2.43,0,0,0,53,22a7.29,7.29,0,0,0,2.34-.4,10.75,10.75,0,0,1,1.31-.4c.4,0,.6.15.6.46s-.47.85-1.4,1.33a5.92,5.92,0,0,1-2.72.72,4,4,0,0,1-2.9-1.06A3.53,3.53,0,0,1,49.13,20,7.69,7.69,0,0,1,50,16.57a9.35,9.35,0,0,1,2.24-3A4.14,4.14,0,0,1,55,12.37a3.22,3.22,0,0,1,2.45,1.28,3.89,3.89,0,0,1,1.11,2.51m-3.45-2a2.62,2.62,0,0,0-1.76.88,7.71,7.71,0,0,0-1.55,2.18,9.32,9.32,0,0,0,2.08.21,5.1,5.1,0,0,0,2-.38q.87-.37.87-1a2,2,0,0,0-.56-1.26,1.52,1.52,0,0,0-1.11-.64"/><path class="cls-1" d="M75.39,12.37a1.93,1.93,0,0,1,1.47.86,2.58,2.58,0,0,1,.68,1.5q0,.39-.36.39a1.65,1.65,0,0,1-.78-.4,1.74,1.74,0,0,0-1.08-.4A4.21,4.21,0,0,0,73.6,15c-.79.42-1.18.87-1.18,1.35s.7,1,2.1,1.8A6.33,6.33,0,0,1,76,19.4a2.64,2.64,0,0,1,.65,1.7c0,.6-.42,1.18-1.25,1.76a5,5,0,0,1-2.9.85,5.32,5.32,0,0,1-2.93-.8c-.84-.53-1.27-1-1.27-1.51a.67.67,0,0,1,.15-.46.48.48,0,0,1,.38-.18,1.25,1.25,0,0,1,.64.3A4.29,4.29,0,0,0,72,22,4.36,4.36,0,0,0,74,21.64a.92.92,0,0,0,.6-.82,1.57,1.57,0,0,0-.67-1.1,9.73,9.73,0,0,0-1.45-1A6.71,6.71,0,0,1,71,17.56a1.92,1.92,0,0,1-.66-1.34c0-.81.63-1.65,1.91-2.53a6.05,6.05,0,0,1,3.16-1.32"/><path class="cls-1" d="M81.41,12.38a1.05,1.05,0,0,1,.82.52,1.72,1.72,0,0,1,.39,1,18.7,18.7,0,0,1-.67,3q-.66,2.49-1.66,5.61-.39,1.14-1,1.14a.74.74,0,0,1-.55-.26.89.89,0,0,1-.22-.6,4.73,4.73,0,0,1,.17-1c.11-.48.28-1.12.5-1.92s.4-1.45.53-1.95.26-1.07.4-1.71.24-1.14.33-1.53.18-.78.28-1.17c.22-.75.44-1.12.67-1.12m.11-3.25a1.26,1.26,0,0,1,.37-.87,1,1,0,0,1,.74-.41c.25,0,.55.31.9.92a3.38,3.38,0,0,1,.53,1.55.54.54,0,0,1-.21.41.63.63,0,0,1-.43.18,1.84,1.84,0,0,1-1.22-.66,1.82,1.82,0,0,1-.68-1.12"/><path class="cls-1" d="M98.83,12.37c.45,0,.86.32,1.22,1a4.29,4.29,0,0,1,.54,2.15,14.73,14.73,0,0,1-.43,3.12A18.39,18.39,0,0,1,99,22.11c-.47,1.07-.93,1.6-1.39,1.6s-.48-.21-.48-.63A14.69,14.69,0,0,1,98,20a13.77,13.77,0,0,0,.78-3.91c0-1-.15-1.45-.45-1.45s-.82.33-1.32,1-1,1.48-1.59,2.43-.86,1.45-.91,1.52-.1.16-.17.28-.15.25-.23.39-.3.55-.64,1.24a17.77,17.77,0,0,1-.9,1.61c-.26.39-.49.58-.68.58a.92.92,0,0,1-.63-.37,1.07,1.07,0,0,1-.34-.68,4.88,4.88,0,0,1,.41-1.33,15,15,0,0,0,1.19-5.53,1.48,1.48,0,0,0-.21-.81.55.55,0,0,0-.45-.33.9.9,0,0,0-.53.21,4.54,4.54,0,0,0-.68.78c-.28.38-.52.73-.74,1.06l-1,1.57c-.43.71-.76,1.24-1,1.58L87.14,21l-.67,1-.54.8q-.62.84-.9.84c-.19,0-.44-.17-.74-.51a1.42,1.42,0,0,1-.46-.78,3,3,0,0,1,.09-.65c.06-.26.13-.51.2-.75s.17-.61.32-1.09l.5-1.69a14.53,14.53,0,0,0,.43-2.68c.1-1.13.17-2,.22-2.49s.18-.79.39-.79a1.39,1.39,0,0,1,1,.53,1.56,1.56,0,0,1,.5,1A25.13,25.13,0,0,1,86,20.49c1.7-3.2,2.78-5.1,3.22-5.69s.82-1.08,1.14-1.44a2.51,2.51,0,0,1,1.81-1c.36,0,.8.32,1.31,1a3.06,3.06,0,0,1,.77,1.91,12.36,12.36,0,0,1-.28,2.38q2.7-5.23,4.9-5.24"/><path class="cls-1" d="M109.71,12.31a2,2,0,0,1,1.7,1.25,5.18,5.18,0,0,1,.72,2.6,5.25,5.25,0,0,1-.78,2.67,10.29,10.29,0,0,1-1.92,2.39A10.93,10.93,0,0,1,106.91,23a5.72,5.72,0,0,1-2.55.7,3,3,0,0,1-.87-.12c-.06.26-.17.73-.32,1.4s-.28,1.22-.39,1.67-.23.91-.37,1.41c-.27,1-.51,1.56-.73,1.56s-.43-.17-.67-.49a1.55,1.55,0,0,1-.36-.88,31.88,31.88,0,0,1,.73-3.34q2.2-8.89,2.2-12c0-.46.17-.69.5-.69a1.61,1.61,0,0,1,1,.61,1.88,1.88,0,0,1,.58,1.34,4,4,0,0,1-.09.8c1.36-1.77,2.73-2.65,4.14-2.65m-5.58,9.57a5.23,5.23,0,0,0,2.62-.82,8,8,0,0,0,2.4-2.18,4.6,4.6,0,0,0,1-2.71c0-1.27-.3-1.9-.89-1.9s-1.4.51-2.41,1.53a10.66,10.66,0,0,0-2.41,4l-.53,2.1Z"/><path class="cls-1" d="M117.66,7.89a46.37,46.37,0,0,1-1.78,11.16c-.76,3.11-1.3,4.66-1.6,4.66s-.46-.16-.74-.5a1.39,1.39,0,0,1-.43-.78,27.46,27.46,0,0,1,.67-2.83q.66-2.57,1.32-6.3a38.13,38.13,0,0,0,.67-6.73.79.79,0,0,1,.09-.46.45.45,0,0,1,.39-.14c.19,0,.48.22.85.66a1.92,1.92,0,0,1,.56,1.26"/><path class="cls-1" d="M127.88,16.16a2.28,2.28,0,0,1-1.31,2,5.81,5.81,0,0,1-3,.76,11.66,11.66,0,0,1-3-.36,5.8,5.8,0,0,0-.32,1.79,1.51,1.51,0,0,0,.49,1.22,2.43,2.43,0,0,0,1.62.44,7.23,7.23,0,0,0,2.33-.4,11.17,11.17,0,0,1,1.32-.4c.39,0,.59.15.59.46s-.46.85-1.39,1.33a5.92,5.92,0,0,1-2.72.72,4,4,0,0,1-2.9-1.06A3.54,3.54,0,0,1,118.48,20a7.82,7.82,0,0,1,.87-3.39,9.5,9.5,0,0,1,2.24-3,4.16,4.16,0,0,1,2.73-1.22,3.24,3.24,0,0,1,2.45,1.28,3.89,3.89,0,0,1,1.11,2.51m-3.45-2a2.62,2.62,0,0,0-1.76.88,7.71,7.71,0,0,0-1.55,2.18,9.22,9.22,0,0,0,2.07.21,5.12,5.12,0,0,0,2-.38q.87-.37.87-1a2,2,0,0,0-.56-1.26,1.55,1.55,0,0,0-1.11-.64"/><path class="cls-2" d="M137.59,15s2.16.92,5.68,9.65l2.35-1.55a5.94,5.94,0,0,0,.79-1.27s5.22-11.16,12.36-17c0,0,3.32-2.77,4.49-3.46,0,0,.34-.15.23-.43a6.39,6.39,0,0,1-.34-.83c0-.11-.2-.27-.81.16a50.15,50.15,0,0,0-13.67,12.58s-3.11,4.47-4.18,6.18c0,0-3-7.3-5.64-5.66a6.12,6.12,0,0,0-1.74,1.43,4.64,4.64,0,0,1,.48.21"/></g></g></svg>