<svg xmlns="http://www.w3.org/2000/svg" viewBox="0 0 53 53"><defs><style>.cls-1{fill:#212020;}.cls-2{fill:#272d46;}</style></defs><title>icon-instagram</title><g id="Capa_2" data-name="Capa 2"><g id="Capa_1-2" data-name="Capa 1"><path class="cls-1" d="M26.5,53A26.5,26.5,0,1,1,53,26.5,26.53,26.53,0,0,1,26.5,53m0-51.5a25,25,0,1,0,25,25,25,25,0,0,0-25-25"/><path class="cls-2" d="M26.5,14.93c3.77,0,4.22,0,5.71.08a7.91,7.91,0,0,1,2.62.48,4.73,4.73,0,0,1,2.68,2.68A7.93,7.93,0,0,1,38,20.8c.07,1.48.09,1.93.09,5.7s0,4.22-.09,5.71a7.91,7.91,0,0,1-.48,2.62,4.43,4.43,0,0,1-1.06,1.62,4.31,4.31,0,0,1-1.62,1.06,7.91,7.91,0,0,1-2.62.48c-1.49.07-1.94.09-5.71.09s-4.22,0-5.71-.09a7.91,7.91,0,0,1-2.62-.48,4.31,4.31,0,0,1-1.62-1.06,4.43,4.43,0,0,1-1.06-1.62A7.91,7.91,0,0,1,15,32.21c-.07-1.49-.09-1.94-.09-5.71s0-4.22.09-5.7a7.93,7.93,0,0,1,.48-2.63,4.73,4.73,0,0,1,2.68-2.68A7.91,7.91,0,0,1,20.79,15c1.49-.07,1.94-.08,5.71-.08m0-2.55c-3.83,0-4.32,0-5.82.09a10.44,10.44,0,0,0-3.43.65,7.24,7.24,0,0,0-4.13,4.13,10.18,10.18,0,0,0-.65,3.43c-.07,1.51-.09,2-.09,5.82s0,4.32.09,5.82a10.13,10.13,0,0,0,.65,3.43,7.24,7.24,0,0,0,4.13,4.13,10.41,10.41,0,0,0,3.43.66c1.5.06,2,.08,5.82.08s4.31,0,5.82-.08a10.41,10.41,0,0,0,3.43-.66,7.24,7.24,0,0,0,4.13-4.13,10.13,10.13,0,0,0,.65-3.43c.07-1.5.09-2,.09-5.82s0-4.31-.09-5.82a10.18,10.18,0,0,0-.65-3.43,7.24,7.24,0,0,0-4.13-4.13,10.44,10.44,0,0,0-3.43-.65c-1.51-.07-2-.09-5.82-.09"/><path class="cls-2" d="M26.5,19.25a7.25,7.25,0,1,0,7.25,7.25,7.26,7.26,0,0,0-7.25-7.25m0,12a4.71,4.71,0,1,1,4.71-4.71,4.71,4.71,0,0,1-4.71,4.71"/><path class="cls-2" d="M35.73,19A1.7,1.7,0,1,1,34,17.27,1.7,1.7,0,0,1,35.73,19"/></g></g></svg>