<svg xmlns="http://www.w3.org/2000/svg" viewBox="0 0 53 53"><defs><style>.cls-1{fill:#272d46;}.cls-2{fill:#212020;}</style></defs><title>icon-linkedin</title><g id="Capa_2" data-name="Capa 2"><g id="Capa_1-2" data-name="Capa 1"><rect class="cls-1" x="14.11" y="20.76" width="5.33" height="17.22"/><path class="cls-1" d="M16.75,18.51a3.18,3.18,0,1,0-3.16-3.18,3.17,3.17,0,0,0,3.16,3.18"/><path class="cls-1" d="M28,28.94c0-2.42,1.11-3.86,3.24-3.86,2,0,2.9,1.38,2.9,3.86v9h5.31V27.08c0-4.62-2.62-6.85-6.27-6.85A6,6,0,0,0,28,23.08V20.76H22.84V38H28Z"/><path class="cls-2" d="M26.5,53A26.5,26.5,0,1,1,53,26.5,26.53,26.53,0,0,1,26.5,53m0-51.5a25,25,0,1,0,25,25,25,25,0,0,0-25-25"/></g></g></svg>