<svg xmlns="http://www.w3.org/2000/svg" viewBox="0 0 53 53"><defs><style>.cls-1{fill:#272d46;}.cls-2{fill:#212020;}</style></defs><title>icon-facebook</title><g id="Capa_2" data-name="Capa 2"><g id="Capa_1-2" data-name="Capa 1"><path class="cls-1" d="M22.58,42.07h6.26V26.37h4.38l.46-5.26H28.84v-3c0-1.24.25-1.73,1.45-1.73h3.39V10.94H29.34c-4.66,0-6.76,2.05-6.76,6v4.19H19.32v5.32h3.26Z"/><path class="cls-2" d="M26.5,53A26.5,26.5,0,1,1,53,26.5,26.53,26.53,0,0,1,26.5,53m0-51.5a25,25,0,1,0,25,25,25,25,0,0,0-25-25"/></g></g></svg>