<svg xmlns="http://www.w3.org/2000/svg" viewBox="0 0 209.25 38.71"><defs><style>.cls-1{fill:#272d46;}.cls-2{fill:#bf6023;}.cls-3{fill:#fff;}</style></defs><title>smarket-horizontal</title><g id="Capa_2" data-name="Capa 2"><g id="Capa_1-2" data-name="Capa 1"><path class="cls-1" d="M55.08,21.24a.78.78,0,0,1-1.4,0L47.77,9.39a1,1,0,0,0-.88-.54H42.41a.79.79,0,0,0-.79.79V32.38a.79.79,0,0,0,.79.79h4.3a.79.79,0,0,0,.79-.79v-7.9a.79.79,0,0,1,1.5-.33l3.9,8.56a.79.79,0,0,0,.71.46h1.54a.77.77,0,0,0,.71-.46l4-8.71a.79.79,0,0,1,1.5.33v8.05a.78.78,0,0,0,.78.79h4.27a.78.78,0,0,0,.78-.79V9.64a.78.78,0,0,0-.78-.79H61.86a.78.78,0,0,0-.7.43Z"/><path class="cls-1" d="M98.68,31.45,88.19,9.53a1.21,1.21,0,0,0-1.08-.68H84.19a1.2,1.2,0,0,0-1.07.67L72.23,31.44a1.2,1.2,0,0,0,1.07,1.73h3.91a1.2,1.2,0,0,0,1.07-.67l1-2a1.19,1.19,0,0,1,1.07-.67h10.3a1.2,1.2,0,0,1,1.07.67l1,2a1.2,1.2,0,0,0,1.07.67H97.6a1.2,1.2,0,0,0,1.08-1.72M89,25.09H82.1a0,0,0,0,1,0-.07l3.37-7.65s.07,0,.09,0L89.07,25a.05.05,0,0,1,0,.07"/><path class="cls-1" d="M119,26.87a1.21,1.21,0,0,1,.29-1.69,8,8,0,0,0,3.29-6.75c0-5.31-3.74-9.58-8.72-9.58H103.28a1.2,1.2,0,0,0-1.2,1.2V32a1.2,1.2,0,0,0,1.2,1.2h3.55A1.2,1.2,0,0,0,108,32V28.31a1.2,1.2,0,0,1,1.2-1.2h2.42a1.19,1.19,0,0,1,1,.54l3.29,5a1.19,1.19,0,0,0,1,.54h4.34a1.19,1.19,0,0,0,1-1.9ZM113,21.76h-4.89a0,0,0,0,1,0-.05V14.89a0,0,0,0,1,0-.05h4.74a3.71,3.71,0,0,1,3.78,3.54A3.38,3.38,0,0,1,113,21.76"/><path class="cls-1" d="M149.75,8.85h-4a1.21,1.21,0,0,0-.84.34l-7.64,7.44a1.19,1.19,0,0,1-2-.85V10.05a1.2,1.2,0,0,0-1.2-1.2h-3.44a1.2,1.2,0,0,0-1.2,1.2V32a1.2,1.2,0,0,0,1.2,1.2h3.44a1.2,1.2,0,0,0,1.2-1.2V26.81a1.21,1.21,0,0,1,.33-.83l1.18-1.21a1.2,1.2,0,0,1,1.8.09l6.13,7.85a1.18,1.18,0,0,0,.94.46h5.11a1.19,1.19,0,0,0,.91-2L142.5,20.33a1.18,1.18,0,0,1,.08-1.63l8-7.79a1.2,1.2,0,0,0-.83-2.06"/><path class="cls-1" d="M157,33.17h15.9a1.2,1.2,0,0,0,1.2-1.2v-2.8a1.2,1.2,0,0,0-1.2-1.2H162.84a1.2,1.2,0,0,1-1.2-1.2V24.83a1.2,1.2,0,0,1,1.2-1.2h7.44a1.2,1.2,0,0,0,1.2-1.2v-2.8a1.2,1.2,0,0,0-1.2-1.2h-7.44a1.2,1.2,0,0,1-1.2-1.2V15.29a1.2,1.2,0,0,1,1.2-1.2H172.9a1.2,1.2,0,0,0,1.2-1.2V10.05a1.2,1.2,0,0,0-1.2-1.2H157a1.2,1.2,0,0,0-1.2,1.2V32a1.2,1.2,0,0,0,1.2,1.2"/><path class="cls-1" d="M177.92,14.09h6.84a1.2,1.2,0,0,1,1.2,1.2V32a1.2,1.2,0,0,0,1.2,1.2h3.44a1.19,1.19,0,0,0,1.19-1.2V15.29a1.2,1.2,0,0,1,1.2-1.2h6.85a1.2,1.2,0,0,0,1.2-1.2V10.05a1.2,1.2,0,0,0-1.2-1.2H177.92a1.2,1.2,0,0,0-1.2,1.2v2.84a1.2,1.2,0,0,0,1.2,1.2"/><path class="cls-1" d="M208.34,9.24a3,3,0,0,0-2.19-.9,3.09,3.09,0,0,0-3.09,3.08,3,3,0,0,0,.9,2.2,3.09,3.09,0,0,0,4.38,0,3,3,0,0,0,.91-2.2,3,3,0,0,0-.91-2.18M208,13.33a2.67,2.67,0,0,1-3.77,0,2.64,2.64,0,0,1-.77-1.9,2.65,2.65,0,0,1,2.66-2.67,2.66,2.66,0,0,1,2.66,2.67,2.61,2.61,0,0,1-.78,1.9"/><path class="cls-1" d="M207.5,12.9a2.35,2.35,0,0,1,0-.26v-.25a.88.88,0,0,0-.19-.52.79.79,0,0,0-.58-.33,1.33,1.33,0,0,0,.49-.17.74.74,0,0,0,.33-.67.83.83,0,0,0-.52-.86,2.67,2.67,0,0,0-.93-.12H204.9v3.4h.6V11.78H206a1.37,1.37,0,0,1,.67.11.83.83,0,0,1,.32.78V13s0,0,0,0v0h.56l0,0a.29.29,0,0,1,0-.17m-.89-1.62a1.65,1.65,0,0,1-.57.08h-.54V10.12H206a1.59,1.59,0,0,1,.72.13.51.51,0,0,1,.23.5.52.52,0,0,1-.35.53"/><path class="cls-2" d="M17.94,0A19.41,19.41,0,0,0,0,19.55v8.71c0,.24-.16,1.19.7,1.19h0a11,11,0,0,1,10.7,8.49s.16.75,1.25.76L19,38.62A19.31,19.31,0,1,0,17.94,0"/><path class="cls-3" d="M21.17,32.73c-6.74,1.07-10.94-2.18-12.29-5.3a1.15,1.15,0,0,1,.87-1.62l4.43-.7a1.14,1.14,0,0,1,1.18.6c.53,1,1.87,2.48,5,2,2.42-.38,4.38-2.18,4.13-3.74-.52-3.24-6.45-2.54-8.19-2.63-3.06-.11-8.31-.64-9.07-5.45C6.54,11.38,10.76,6.94,16.62,6c6.16-1,10,1.17,11.35,4a1.15,1.15,0,0,1-.88,1.6l-4.21.66a1.06,1.06,0,0,1-1-.33c-.5-.59-1.84-1.22-4.45-.8-2.23.35-3.85,2-3.58,3.73.33,2.07,4.28,1.44,5.72,1.45,3.66.1,10.48-.09,11.54,6.62.69,4.38-3.88,8.87-9.94,9.83"/><path class="cls-2" d="M4.15,33.05A2.83,2.83,0,1,0,7,35.88a2.83,2.83,0,0,0-2.84-2.83"/></g></g></svg>